<svg id="Guides" xmlns="http://www.w3.org/2000/svg" viewBox="0 0 316.33 126">
    <defs>
        <style>
            .cls-1,.cls-3,.cls-4,.cls-7{fill:#e79824;}.cls-1{stroke:#cbccce;stroke-miterlimit:10;stroke-width:3px;}.cls-2,.cls-7{font-size:74.09px;letter-spacing:0.06em;}.cls-2,.cls-6,.cls-8,.cls-9{fill:#fff;}.cls-2,.cls-6,.cls-7{font-family:Baloo-Regular,
            Baloo;}.cls-3,.cls-8{letter-spacing:0.04em;}.cls-5{fill:#c2801c;}.cls-6{font-size:66.81px;letter-spacing:0.06em;}
        </style>
    </defs>
    <title>Obszar roboczy 5logo</title>
    <path class="cls-1"
          d="M50.87,95.31c1.54,8.21,3.91,15.67,9.92,21.73H35.27c4.84-6.42,7.18-13.81,9-21.15-3.82,1.15-7.59,2.54-11.45,3.38A18.86,18.86,0,0,1,21.8,98C12.28,94.23,7.94,84.24,11,73.25c2.2-7.87,6.56-14.28,11.9-19.85a170.63,170.63,0,0,0,23-30.22c.48-.79,1-1.56,1.62-2.56,2,3.4,3.86,6.56,5.78,9.66A125.17,125.17,0,0,0,71.2,52.45c5.74,5.78,10.28,12.47,12.06,20.94,3.13,14.88-7.16,27.31-21.09,25.52a31.8,31.8,0,0,1-5.68-1.23C54.65,97.09,52.89,96.18,50.87,95.31Z"/>
    <text class="cls-2" transform="translate(92.32 104.54)">pi
        <tspan class="cls-3" x="73.28" y="0">k</tspan>
        <tspan class="cls-4" x="117.29" y="0">er</tspan>
    </text>
    <path class="cls-5"
          d="M47.44,23.56c2,3.24,3.15,5.52,5,8.48A121,121,0,0,0,70,53.18c5.62,5.51,10.06,11.89,11.8,19.95,3.06,14.21-6.13,26.33-20.75,24.26a32.1,32.1,0,0,1-5.57-1.18C53.69,95.65,52,94.77,50,93.94a35,35,0,0,0,7.47,21.61H47.71Z"/>
    <text class="cls-6" transform="matrix(0.99, 0, 0, 1, 24.71, 89.01)">π</text>
    <text class="cls-7" transform="translate(108.99 -36.79)">pi
        <tspan class="cls-8" x="73.28" y="0">k</tspan>
        <tspan class="cls-9" x="117.29" y="0">er</tspan>
    </text>
</svg>